<svg version="1.1" id="Layer_1" xmlns="http://www.w3.org/2000/svg" xmlns:xlink="http://www.w3.org/1999/xlink" x="0px" y="0px"
	 width="100%" viewBox="0 0 816 288" enable-background="new 0 0 816 288" xml:space="preserve">
<path fill="#000000" opacity="1.000000" stroke="none" 
	d="
M560.468628,289.000000 
	C551.451233,282.054626 544.657227,273.862732 540.926880,263.286377 
	C533.090820,241.069656 542.773926,217.960724 559.558411,205.614029 
	C577.314880,192.552353 602.459778,192.348129 620.925171,205.262360 
	C647.431763,223.800339 650.455139,261.040344 627.280884,283.544373 
	C625.613098,285.163971 623.946228,286.784546 622.139465,288.702332 
	C601.645752,289.000000 581.291565,289.000000 560.468628,289.000000 
M588.735718,271.768860 
	C602.316284,273.022522 614.113953,263.043854 615.570068,249.755020 
	C617.061279,236.145370 607.181274,223.658981 594.312439,222.297180 
	C579.161804,220.693924 567.205017,229.983398 565.425964,244.739716 
	C563.860535,257.724274 574.023987,269.949615 588.735718,271.768860 
z"/>
<path fill="#000000" opacity="1.000000" stroke="none" 
	d="
M346.468689,289.000000 
	C346.264404,283.709167 346.528778,278.418335 346.825012,272.490173 
	C353.500366,273.439636 359.831482,274.278900 366.141174,275.256592 
	C371.372620,276.067230 376.393707,275.166229 381.398315,273.782440 
	C384.808868,272.839386 386.992920,270.588562 387.441254,267.207825 
	C387.863342,264.024841 385.533051,261.961609 383.134277,260.406250 
	C379.032990,257.746918 374.197235,256.860687 369.644318,255.305389 
	C362.757874,252.952942 356.400146,249.675415 351.810242,243.888107 
	C340.178558,229.221985 345.986938,207.214615 363.477295,199.588776 
	C376.805634,193.777573 390.445251,195.075974 404.097839,198.269699 
	C405.375214,198.568527 406.709961,199.094757 407.073364,200.624054 
	C408.480103,206.544052 408.250977,212.546310 407.464478,218.481522 
	C407.114075,221.125916 404.681671,220.216492 402.968994,219.843964 
	C396.599396,218.458481 390.194489,217.528946 383.662842,218.227432 
	C382.026825,218.402390 380.348755,218.664017 378.817078,219.229752 
	C376.102478,220.232391 373.547913,221.631989 373.354919,225.009064 
	C373.151367,228.571198 375.437805,230.501282 378.372955,231.684845 
	C383.463043,233.737366 388.623016,235.616409 393.753479,237.568741 
	C416.616852,246.268997 421.846039,271.234619 404.208984,288.741760 
	C384.979095,289.000000 365.958221,289.000000 346.468689,289.000000 
z"/>
<path fill="#000000" opacity="1.000000" stroke="none" 
	d="
M200.468658,289.000000 
	C192.265701,282.250519 185.793640,274.657104 182.435547,264.676819 
	C171.599106,232.470673 190.701584,196.867645 230.538284,195.678574 
	C237.749451,195.463333 244.797195,196.304306 251.700272,198.437668 
	C253.556030,199.011185 255.249802,199.606003 255.255447,201.932877 
	C255.274384,209.723221 255.262650,217.513626 255.262650,225.183838 
	C252.240845,226.434448 250.303055,224.668671 248.216537,223.976624 
	C237.859818,220.541550 227.670578,219.515991 218.090637,226.097656 
	C207.977417,233.045685 204.643646,245.708496 209.602158,257.626129 
	C213.736267,267.562347 226.100052,274.018188 237.133575,272.449768 
	C243.055405,271.607971 248.654663,269.660187 255.216660,267.621643 
	C255.216660,274.932098 255.216660,281.507721 255.108337,288.541687 
	C236.979111,289.000000 218.958206,289.000000 200.468658,289.000000 
z"/>
<path fill="#000000" opacity="1.000000" stroke="none" 
	d="
M458.468658,289.000000 
	C451.102844,282.659119 444.860138,275.907440 441.291626,266.953491 
	C429.568085,237.537582 445.246002,201.506256 480.838379,196.502960 
	C490.422760,195.155670 499.704041,195.772476 509.006378,198.165802 
	C512.088928,198.958893 513.437744,200.420486 513.359863,203.697357 
	C513.187134,210.965515 513.306030,218.240601 513.306030,225.269318 
	C510.546021,226.123459 508.998260,224.882217 507.314056,224.287979 
	C499.490875,221.527756 491.573639,219.984894 483.369995,222.497192 
	C470.560883,226.419876 462.947449,238.985046 465.666565,251.648376 
	C468.593597,265.279755 481.375488,274.370544 494.838379,272.422913 
	C500.740784,271.569061 506.503479,270.121094 513.181091,267.377258 
	C513.181091,274.973236 513.181091,281.525146 513.090576,288.538513 
	C494.979095,289.000000 476.958221,289.000000 458.468658,289.000000 
z"/>
<path fill="#000000" opacity="1.000000" stroke="none" 
	d="
M550.545898,1.000000 
	C557.132019,4.617296 559.071289,10.214780 559.059143,17.040092 
	C558.986816,57.684486 559.043152,98.329102 559.004272,138.973587 
	C559.001953,141.450897 558.842224,143.998703 558.254822,146.390701 
	C556.846741,152.125153 551.367493,156.221817 545.796265,156.042404 
	C539.880493,155.851898 534.948425,151.898605 533.641541,146.031982 
	C533.139954,143.780777 532.932495,141.419693 532.930054,139.108307 
	C532.887024,98.296921 532.925110,57.485432 532.864868,16.674086 
	C532.855286,10.222060 534.690186,4.885859 540.744568,1.217089 
	C544.030579,1.000000 547.061218,1.000000 550.545898,1.000000 
z"/>
<path fill="#000000" opacity="1.000000" stroke="none" 
	d="
M280.545898,1.000000 
	C286.681946,4.297987 289.350616,9.086486 289.332336,15.798619 
	C289.218384,57.615974 289.295410,99.433807 289.254425,141.251434 
	C289.243866,152.039505 281.400085,158.319305 272.030457,155.214417 
	C266.603973,153.416214 263.663849,148.814575 263.660553,141.913651 
	C263.644135,107.426567 263.651215,72.939468 263.650909,38.452381 
	C263.650848,30.955187 263.902832,23.447269 263.579681,15.964114 
	C263.309906,9.717678 265.276794,4.898555 270.796387,1.266889 
	C274.030609,1.000000 277.061188,1.000000 280.545898,1.000000 
z"/>
<path fill="#000000" opacity="1.000000" stroke="none" 
	d="
M288.468658,289.000000 
	C287.965149,260.359863 287.975433,231.719482 287.844391,203.079773 
	C287.825806,199.013702 289.247040,197.391968 293.402863,197.605911 
	C298.550568,197.870941 303.731598,197.816849 308.882935,197.574738 
	C312.685669,197.396042 314.285706,198.658936 314.266785,202.645676 
	C314.131714,231.119156 314.141632,259.593323 314.052734,288.533630 
	C305.645782,289.000000 297.291534,289.000000 288.468658,289.000000 
z"/>
<path fill="#000000" opacity="1.000000" stroke="none" 
	d="
M672.464661,289.000000 
	C672.471375,286.174561 670.045837,285.246735 668.159302,283.908569 
	C675.562622,280.175171 682.398499,282.053131 685.816406,288.706421 
	C681.643127,289.000000 677.286194,289.000000 672.464661,289.000000 
z"/>
<path fill="#000000" opacity="1.000000" stroke="none" 
	d="
M687.437500,289.000000 
	C687.187439,288.543304 687.289673,288.022369 687.577087,287.640991 
	C688.858032,285.941406 688.346741,282.376465 691.490234,282.716766 
	C695.016663,283.098541 692.588013,286.628387 693.878662,288.698242 
	C691.958313,289.000000 689.916687,289.000000 687.437500,289.000000 
z"/>
<path fill="#000000" opacity="1.000000" stroke="none" 
	d="
M222.101685,95.000000 
	C222.093063,102.665298 222.187668,109.832581 222.050613,116.995430 
	C221.871231,126.370392 216.408417,131.812088 207.911880,131.315704 
	C200.448853,130.879715 196.143860,124.491417 196.267502,115.603485 
	C196.494415,99.290283 196.174652,82.969872 196.146927,66.652359 
	C196.141846,63.661106 196.278000,60.649830 196.633347,57.681843 
	C197.388016,51.378651 202.091919,47.033592 208.258896,46.706226 
	C214.724594,46.363007 220.056000,50.263954 221.390579,56.574566 
	C221.902374,58.994740 222.071625,61.524071 222.088516,64.005760 
	C222.157684,74.170067 222.107849,84.335182 222.101685,95.000000 
z"/>
<path fill="#000000" opacity="1.000000" stroke="none" 
	d="
M601.711304,123.734634 
	C600.591309,121.323830 600.656128,119.152359 600.656738,116.986320 
	C600.662109,98.348045 600.641968,79.709732 600.673950,61.071514 
	C600.689148,52.237221 605.442322,46.789684 613.094421,46.693161 
	C620.994202,46.593513 626.235840,52.173229 626.263184,60.961700 
	C626.321655,79.766197 626.302185,98.571014 626.274597,117.375641 
	C626.264648,124.146759 622.866089,129.219604 617.360535,130.904831 
	C611.184448,132.795303 605.817322,130.450134 601.711304,123.734634 
z"/>
<path fill="#000000" opacity="1.000000" stroke="none" 
	d="
M352.202209,49.683960 
	C355.332703,52.402187 356.425751,55.560390 356.419830,59.267765 
	C356.387939,79.255470 356.468781,99.243530 356.380066,119.230881 
	C356.351318,125.707970 352.079742,130.378296 345.890259,131.247437 
	C339.258484,132.178680 333.457916,128.521240 331.720978,122.135376 
	C331.202881,120.230476 330.928711,118.199432 330.921295,116.224770 
	C330.854462,98.400742 330.825073,80.576225 330.891113,62.752251 
	C330.912750,56.906212 331.927399,51.352627 337.789764,48.255028 
	C342.708710,45.655910 347.424011,46.314621 352.202209,49.683960 
z"/>
<path fill="#000000" opacity="1.000000" stroke="none" 
	d="
M465.827515,84.000244 
	C465.827209,75.515999 465.648376,67.526482 465.882477,59.549072 
	C466.083008,52.716171 470.719330,47.675121 477.032288,46.773983 
	C482.942902,45.930264 488.825714,49.499813 490.672058,55.279240 
	C491.213867,56.975338 491.315399,58.868061 491.319580,60.671356 
	C491.363464,79.634384 491.369568,98.597595 491.336090,117.560669 
	C491.321289,125.930550 486.471283,131.229797 478.894653,131.313492 
	C471.268066,131.397736 465.897186,125.839272 465.815399,117.435547 
	C465.708618,106.458183 465.814056,95.478752 465.827515,84.000244 
z"/>
<path fill="#000000" opacity="1.000000" stroke="none" 
	d="
M154.314896,105.002831 
	C154.312241,109.997108 154.439209,114.497566 154.275909,118.987465 
	C154.007690,126.362007 148.693924,131.349686 141.349243,131.341202 
	C134.343887,131.333115 128.958801,126.384277 128.763321,119.205582 
	C128.523193,110.387260 128.523895,101.552834 128.755219,92.734154 
	C128.947205,85.414886 134.672195,80.095131 141.659363,80.208023 
	C148.810196,80.323570 154.032883,85.561531 154.278442,93.015892 
	C154.404480,96.841591 154.309341,100.674576 154.314896,105.002831 
z"/>
<path fill="#000000" opacity="1.000000" stroke="none" 
	d="
M685.120178,130.793655 
	C673.589539,132.269760 667.868530,127.345215 667.800293,116.306984 
	C667.756042,109.145134 667.757446,101.982460 667.811890,94.820702 
	C667.877258,86.210487 672.928650,80.376122 680.330139,80.251900 
	C688.353638,80.117241 693.332092,85.501884 693.387634,94.491867 
	C693.434937,102.153282 693.243713,109.818611 693.423157,117.475998 
	C693.567932,123.655624 691.192139,128.079590 685.120178,130.793655 
z"/>
<path fill="#000000" opacity="1.000000" stroke="none" 
	d="
M399.208374,123.060257 
	C398.161316,112.189209 398.634552,101.695084 398.790009,91.215645 
	C398.866425,86.063263 403.008392,81.828026 408.028961,80.739014 
	C413.917572,79.461716 419.474274,81.788788 422.201019,86.662369 
	C423.448334,88.891777 424.103516,91.316734 424.127716,93.830261 
	C424.204651,101.825722 424.344849,109.827881 424.105865,117.816841 
	C423.898468,124.749825 419.781769,129.894592 414.056915,131.153610 
	C408.077271,132.468658 402.948608,129.781158 399.208374,123.060257 
z"/>
</svg>